<?xml version="1.0" encoding="utf-8"?>
<!-- Generator: Adobe Illustrator 22.1.0, SVG Export Plug-In . SVG Version: 6.00 Build 0)  -->
<svg version="1.1" id="Layer_1" xmlns="http://www.w3.org/2000/svg" xmlns:xlink="http://www.w3.org/1999/xlink" x="0px" y="0px"
	 viewBox="0 0 100 100" style="enable-background:new 0 0 100 100;" xml:space="preserve">
<style type="text/css">
	.st0{fill:#00A4C4;}
</style>
<title>xln-logo-left</title>
<g id="xln-letters">
	<path class="st0" d="M34.2,56.8l9.8,15H33.9l-6.3-9.4l-6.3,9.5H11.2l9.9-15l-9.9-15h7.8c1.4,0.1,2.7,0.8,3.5,1.9l5.1,7.6l5.1-7.6
		c0.8-1.1,2.1-1.8,3.5-1.9H44L34.2,56.8z"/>
	<path class="st0" d="M75.5,40.3c-4.5-0.1-8.9,0.7-13.1,2.3v29.3h9V48.2c1.2-0.4,2.5-0.7,3.8-0.6c3.6,0,4.6,2.2,4.6,4.3v19.9h9V50.2
		C88.9,44.5,85.4,40.3,75.5,40.3z"/>
	<path class="st0" d="M52.6,28.1h-0.2c-1.6,0-3.1,0.3-4.6,0.8v43h9.3V31.6C57.1,29.4,55.7,28.2,52.6,28.1z"/>
</g>
</svg>
