<?xml version="1.0" encoding="utf-8"?>
<!-- Generator: Adobe Illustrator 22.1.0, SVG Export Plug-In . SVG Version: 6.00 Build 0)  -->
<svg version="1.1" id="Layer_1" xmlns="http://www.w3.org/2000/svg" xmlns:xlink="http://www.w3.org/1999/xlink" x="0px" y="0px"
	 viewBox="0 0 369.3 560" style="enable-background:new 0 0 369.3 560;" xml:space="preserve">
<style type="text/css">
	.st0{fill:#FAFAFA;}
	.st1{fill:#00A4C4;}
</style>
<title>markerPoint</title>
<path class="st0" d="M369.3,184.7C369.9,290.4,184.7,560,184.7,560S0.6,286,0,184.7C-0.5,82.7,82.7,0,184.7,0
	S368.8,82.7,369.3,184.7z"/>
<path class="st1" d="M353.2,193.5C353.7,290,184.7,536,184.7,536S16.7,286,16.2,193.5C15.7,100.4,91.6,25,184.7,25
	S352.7,100.4,353.2,193.5z"/>
<circle class="st0" cx="184.7" cy="191.5" r="98.5"/>
<g>
	<path class="st1" d="M154.3,233.3l-23.2-23.2c-3.4-3.4-3.4-9.1,0-12.5l0,0c3.4-3.4,9.1-3.4,12.5,0l23.2,23.2
		c3.4,3.4,3.4,9.1,0,12.5l0,0C163.4,236.8,157.8,236.8,154.3,233.3z"/>
	<path class="st1" d="M238.2,162.2L167,233.3c-3.4,3.4-9.1,3.4-12.5,0l0,0c-3.4-3.4-3.4-9.1,0-12.5l71.2-71.2
		c3.4-3.4,9.1-3.4,12.5,0l0,0C241.6,153.1,241.6,158.7,238.2,162.2z"/>
</g>
</svg>
